<?xml version="1.0" encoding="UTF-8" standalone="no"?>
<!-- Created with Inkscape (http://www.inkscape.org/) -->

<svg
   width="28.893042mm"
   height="28.762869mm"
   viewBox="0 0 28.893042 28.762869"
   version="1.1"
   id="svg5"
   inkscape:version="1.1.2 (0a00cf5339, 2022-02-04)"
   sodipodi:docname="icon.svg"
   xmlns:inkscape="http://www.inkscape.org/namespaces/inkscape"
   xmlns:sodipodi="http://sodipodi.sourceforge.net/DTD/sodipodi-0.dtd"
   xmlns="http://www.w3.org/2000/svg"
   xmlns:svg="http://www.w3.org/2000/svg">
  <sodipodi:namedview
     id="namedview7"
     pagecolor="#505050"
     bordercolor="#ffffff"
     borderopacity="1"
     inkscape:pageshadow="0"
     inkscape:pageopacity="0"
     inkscape:pagecheckerboard="1"
     inkscape:document-units="px"
     showgrid="false"
     inkscape:zoom="0.52850974"
     inkscape:cx="238.4062"
     inkscape:cy="-569.52593"
     inkscape:window-width="2560"
     inkscape:window-height="1403"
     inkscape:window-x="1920"
     inkscape:window-y="0"
     inkscape:window-maximized="1"
     inkscape:current-layer="layer1"
     fit-margin-top="0"
     fit-margin-left="0"
     fit-margin-right="0"
     fit-margin-bottom="0" />
  <defs
     id="defs2">
    <inkscape:path-effect
       effect="spiro"
       id="path-effect1607"
       is_visible="true"
       lpeversion="1" />
    <inkscape:path-effect
       effect="spiro"
       id="path-effect1467"
       is_visible="true"
       lpeversion="1" />
  </defs>
  <g
     inkscape:label="Layer 1"
     inkscape:groupmode="layer"
     id="layer1"
     transform="translate(-66.659325,-70.104795)">
    <circle
       style="fill:#ffffff;stroke:none;stroke-width:0.529167"
       id="path1032"
       cx="81.162369"
       cy="-84.486229"
       r="14.381434"
       transform="scale(1,-1)" />
    <path
       style="fill:none;stroke:#000000;stroke-width:0.264583px;stroke-linecap:butt;stroke-linejoin:miter;stroke-opacity:1"
       d="m 66.776827,83.812567 c 0.50191,0.970287 1.459306,1.692328 2.530181,1.908191 1.070875,0.215864 2.233232,-0.07888 3.071847,-0.778952 0.154455,-0.128937 0.298366,-0.270656 0.459354,-0.391337 0.478653,-0.358811 1.087701,-0.512849 1.685794,-0.52461 0.598094,-0.01176 1.190729,0.109828 1.77048,0.257281 0.579752,0.147453 1.154087,0.321652 1.744376,0.418668 0.59029,0.09701 1.20405,0.114499 1.779267,-0.04975 0.497603,-0.14209 0.948387,-0.414687 1.365864,-0.720484 0.417476,-0.305798 0.807959,-0.647325 1.227838,-0.949815 0.419878,-0.30249 0.875583,-0.568232 1.376413,-0.698491 0.500831,-0.130259 1.053308,-0.114907 1.512951,0.122846 0.35159,0.181862 0.630934,0.483091 0.839085,0.819784 0.208152,0.336693 0.350118,0.709611 0.478738,1.083972 0.12862,0.374361 0.24556,0.75377 0.408816,1.114376 0.163256,0.360606 0.376078,0.705032 0.669846,0.970342 0.350635,0.316668 0.808774,0.508061 1.279187,0.552058 0.470412,0.044 0.951039,-0.05704 1.372096,-0.271367 0.511054,-0.260135 0.925573,-0.67574 1.297417,-1.112293 0.371843,-0.436553 0.711746,-0.902311 1.122251,-1.302725 0.749739,-0.731309 1.728694,-1.224155 2.762684,-1.390849"
       id="path1605"
       inkscape:path-effect="#path-effect1607"
       inkscape:original-d="m 66.776827,83.812567 c 1.867606,0.376677 3.734948,0.753091 5.602028,1.129239 1.867077,0.376147 0.306501,-0.260628 0.459354,-0.391337 0.152852,-0.13071 4.653544,0.06799 6.979917,0.101586 2.326375,0.0336 3.655642,-1.497031 5.483066,-2.245944 1.827424,-0.748914 1.597922,2.659247 2.396485,3.988474 0.798562,1.329227 1.767787,0.187394 2.651283,0.280691 0.883497,0.0933 1.613377,-1.609748 2.419668,-2.415018 0.806291,-0.805273 1.842055,-0.926968 2.762684,-1.390849" />
    <path
       style="fill:#2d9bbd;fill-opacity:1;stroke:none;stroke-width:0.334481"
       d="m 301.53501,373.34957 c -12.95829,-1.33737 -24.60804,-6.96127 -33.61559,-16.22789 -9.64466,-9.92205 -14.84708,-22.15919 -15.40715,-36.24073 l -0.11093,-2.78911 0.78463,1.03676 c 1.99939,2.64185 5.22636,4.68897 8.54575,5.42124 1.56022,0.34419 4.90522,0.25507 6.52239,-0.17377 1.92092,-0.50939 4.13373,-1.65104 5.68618,-2.93365 2.81029,-2.32181 4.46046,-3.05838 7.22075,-3.22307 2.10704,-0.1257 4.00611,0.15645 8.1654,1.21316 5.13853,1.30551 6.18664,1.48279 8.78014,1.48513 4.27097,0.004 6.1754,-0.87999 12.35181,-5.7323 2.32243,-1.82456 4.18242,-2.90035 6.00493,-3.47316 2.71198,-0.85237 5.45713,-0.29619 7.21533,1.46187 1.39748,1.39736 2.03193,2.59347 3.36257,6.33934 1.20763,3.39961 1.46171,3.99313 2.2595,5.27817 1.88632,3.0384 4.81334,4.56949 8.35829,4.37211 3.79454,-0.21127 6.17424,-1.77646 10.34957,-6.80719 1.10697,-1.33374 2.39201,-2.80469 2.85565,-3.26877 2.36612,-2.36833 5.39359,-4.09999 8.60746,-4.9233 0.68997,-0.17676 1.28507,-0.2908 1.32244,-0.25342 0.19247,0.19246 0.2212,7.6512 0.0378,9.80387 -1.33123,15.62273 -9.02784,29.56427 -21.50049,38.94571 -8.00339,6.01984 -17.01971,9.57763 -26.90211,10.61543 -2.60944,0.27403 -8.56243,0.31423 -10.89429,0.0736 z"
       id="path1726"
       transform="scale(0.26458333)" />
  </g>
</svg>
